<svg width="638" height="561" viewBox="0 0 638 561" fill="none" xmlns="http://www.w3.org/2000/svg">
<g clip-path="url(#clip0_40_479)">
<path d="M194.264 544.982C73.8237 491.378 33.2206 322.874 81.7815 200.718C135.641 65.2607 282.495 28.8241 307.738 23.1148C395.533 3.21148 548.856 6.28421 609.582 107.446C677.075 219.888 580.409 370.551 513.75 438.488C496.266 456.309 340.899 610.243 194.264 544.982Z" fill="#ECF3FE"/>
<path d="M511.19 393.824L244.869 312.228L311.985 69.3048L587.891 116.169L511.19 393.824ZM247.627 310.702L509.622 390.989L585.053 117.973L313.612 71.8423L247.627 310.702Z" fill="#444444"/>
<path d="M115.756 555.35L115.221 554.359L23.437 383.337L130.68 325.907L148.6 359.271L223.019 497.92L222.027 498.455L115.756 555.35ZM26.4932 384.249L116.689 552.297L219.943 496.988L146.596 360.321L129.747 328.94L116.352 336.116L26.4932 384.249Z" fill="#444444"/>
<path opacity="0.2" d="M563.422 356.852C604.589 356.852 637.96 323.516 637.96 282.393C637.96 241.271 604.589 207.934 563.422 207.934C522.256 207.934 488.884 241.271 488.884 282.393C488.884 323.516 522.256 356.852 563.422 356.852Z" fill="#3A7EC1"/>
<path d="M556.04 356.852C597.206 356.852 630.578 323.516 630.578 282.393C630.578 241.271 597.206 207.934 556.04 207.934C514.873 207.934 481.502 241.271 481.502 282.393C481.502 323.516 514.873 356.852 556.04 356.852Z" fill="#F9C067"/>
<path opacity="0.2" d="M493.23 378.262C493.23 378.262 572.432 135.874 570.189 135.874C567.947 135.874 543.716 131.374 543.716 131.374L493.23 378.262Z" fill="#3A7EC1"/>
<path opacity="0.2" d="M347.111 511.975L441.196 362.502L347.111 336.196V511.975Z" fill="#3A7EC1"/>
<path opacity="0.2" d="M416.152 433.413C409.801 433.413 403.887 434.979 398.946 437.635L383.288 425.126C385.967 421.3 387.495 416.879 387.495 412.161C387.495 397.809 373.405 386.172 356.021 386.172C338.637 386.172 324.547 397.809 324.547 412.161C324.547 426.514 338.637 438.151 356.021 438.151C364.574 438.151 372.334 435.335 378.009 430.756L392.476 442.314C387.634 446.893 384.697 452.86 384.697 459.422C384.697 473.774 398.787 485.411 416.171 485.411C433.556 485.411 447.646 473.774 447.646 459.422C447.626 445.049 433.536 433.413 416.152 433.413Z" fill="#3A7EC1"/>
<path d="M196.506 492.845L91.2477 549.205L0 379.174L90.8707 330.506L105.239 322.795L122.623 355.167L196.506 492.845Z" fill="#3B82F4"/>
<path d="M36.7333 381.771L40.9206 379.531L39.1147 376.181L26.6917 382.842L28.4777 386.192L32.7047 383.932L39.9879 397.491L43.9966 395.35L36.7333 381.771Z" fill="#B3CEF6"/>
<path d="M58.9994 376.399C57.769 374.139 56.102 372.434 53.9389 371.324C51.7956 370.214 49.5333 370.273 47.1717 371.542C44.83 372.791 43.4805 374.575 43.1035 376.914C42.7264 379.253 43.2027 381.632 44.5323 384.11C45.8421 386.529 47.5686 388.273 49.7317 389.304C51.8948 390.355 54.1175 390.256 56.3997 389.046C58.7811 387.778 60.1306 385.954 60.4679 383.615C60.8053 381.256 60.3092 378.857 58.9994 376.399ZM54.7724 385.736C52.6887 386.846 50.6645 385.577 48.7196 381.93C46.755 378.282 46.8145 375.903 48.8982 374.793C50.9026 373.722 52.9069 375.011 54.8716 378.659C56.8164 382.306 56.7966 384.665 54.7724 385.736Z" fill="#B3CEF6"/>
<path d="M81.8014 364.147C80.7695 362.225 79.4994 360.857 78.011 360.024C76.5226 359.211 75.0938 358.775 73.7443 358.755C72.3949 358.735 70.6683 359.271 68.5648 360.401L63.405 363.176L72.4742 380.086L78.3087 376.974C80.8092 375.626 82.3571 373.762 82.9128 371.383C83.4684 368.985 83.0914 366.586 81.8014 364.147ZM78.6461 370.59C78.527 372.037 77.7332 373.148 76.3043 373.921L74.677 374.793L68.9815 364.187L70.6485 363.295C71.482 362.839 72.2956 362.641 73.0696 362.661C73.8436 362.7 74.677 363.037 75.5502 363.692C76.4234 364.346 77.118 365.178 77.6737 366.209C78.4476 367.696 78.785 369.143 78.6461 370.59Z" fill="#B3CEF6"/>
<path d="M98.0347 355.484C96.8242 353.224 95.1373 351.52 92.9941 350.409C91.724 349.755 90.4341 349.498 89.0846 349.676C88.1519 349.795 87.1993 350.112 86.2269 350.627C83.8852 351.876 82.5357 353.68 82.1586 356C81.7816 358.319 82.2579 360.718 83.5875 363.196C84.6194 365.099 85.8895 366.566 87.4374 367.617C87.874 367.914 88.3106 368.172 88.7869 368.39C90.95 369.44 93.1727 369.341 95.4549 368.112C97.8363 366.844 99.1857 365.02 99.5231 362.68C99.8605 360.341 99.3643 357.943 98.0347 355.484ZM93.8276 364.821C91.8431 365.892 89.8982 364.762 88.0129 361.432C87.9336 361.293 87.8542 361.154 87.7748 360.995C85.8101 357.348 85.8697 354.969 87.9534 353.859C88.2114 353.72 88.4694 353.621 88.7472 353.561C90.4936 353.165 92.2201 354.553 93.9268 357.724C95.8716 361.392 95.8319 363.751 93.8276 364.821Z" fill="#B3CEF6"/>
<path d="M50.2342 431.121C56.0336 429.998 59.8236 424.391 58.6994 418.598C57.5752 412.805 51.9625 409.019 46.1631 410.142C40.3637 411.265 36.5737 416.872 37.6979 422.665C38.8221 428.458 44.4348 432.244 50.2342 431.121Z" fill="#B3CEF6"/>
<path d="M120.757 386.826L68.2274 414.956C66.0643 416.126 63.3654 415.293 62.1945 413.133C61.0236 410.972 61.8571 408.276 64.0202 407.106L116.55 378.976C118.713 377.806 121.412 378.639 122.583 380.8C123.754 382.96 122.94 385.657 120.757 386.826Z" fill="#B3CEF6"/>
<path d="M63.743 460.029C69.6499 459.952 74.3756 455.105 74.2981 449.205C74.2206 443.304 69.3692 438.583 63.4623 438.661C57.5554 438.738 52.8297 443.584 52.9072 449.485C52.9847 455.386 57.836 460.106 63.743 460.029Z" fill="#B3CEF6"/>
<path d="M136.177 415.531L83.6471 443.662C81.484 444.831 78.785 443.999 77.6142 441.838C76.4433 439.677 77.2768 436.981 79.4399 435.811L131.97 407.701C134.133 406.531 136.832 407.364 138.003 409.525C139.154 411.686 138.34 414.382 136.177 415.531Z" fill="#B3CEF6"/>
<path d="M79.0232 488.761C84.9307 488.761 89.7197 483.977 89.7197 478.076C89.7197 472.175 84.9307 467.391 79.0232 467.391C73.1157 467.391 68.3267 472.175 68.3267 478.076C68.3267 483.977 73.1157 488.761 79.0232 488.761Z" fill="#B3CEF6"/>
<path d="M151.597 444.256L99.0668 472.387C96.9036 473.556 94.2047 472.724 93.0339 470.563C91.863 468.402 92.6965 465.706 94.8596 464.536L147.39 436.406C149.553 435.236 152.252 436.069 153.422 438.23C154.573 440.391 153.76 443.087 151.597 444.256Z" fill="#B3CEF6"/>
<path d="M94.4231 517.466C100.331 517.466 105.12 512.683 105.12 506.781C105.12 500.88 100.331 496.096 94.4231 496.096C88.5156 496.096 83.7266 500.88 83.7266 506.781C83.7266 512.683 88.5156 517.466 94.4231 517.466Z" fill="#B3CEF6"/>
<path d="M166.996 472.981L114.466 501.112C112.303 502.281 109.604 501.449 108.434 499.288C107.263 497.127 108.096 494.431 110.259 493.261L162.789 465.131C164.952 463.961 167.651 464.794 168.822 466.955C169.973 469.116 169.16 471.812 166.996 472.981Z" fill="#B3CEF6"/>
<path opacity="0.2" d="M122.623 355.167L108.572 383.258L101.666 397.055L83.2898 433.769L80.8687 438.587L81.2259 434.88L83.8256 406.611L84.8178 395.985L87.4374 367.617L88.0129 361.451L88.7273 353.561L89.0845 349.676L90.8706 330.506L105.238 322.795L122.623 355.167Z" fill="#3A7EC1"/>
<path d="M536.095 318.195C533.416 317.938 530.837 316.649 528.991 314.409L508.848 289.926C505.157 285.446 505.812 278.825 510.297 275.138C514.782 271.45 521.41 272.105 525.101 276.585L538.556 292.959L580.469 258.565C584.954 254.877 591.582 255.532 595.274 260.012C598.965 264.492 598.31 271.113 593.825 274.801L543.795 315.856C541.553 317.7 538.775 318.453 536.095 318.195Z" fill="white"/>
<path d="M424.685 472.287C423.117 470.88 422.998 468.461 424.427 466.915C428.079 462.871 421.946 456.527 421.887 456.468L332.385 375.467C330.818 374.059 330.699 371.641 332.127 370.095C333.536 368.529 335.958 368.41 337.505 369.837L427.166 450.997C431.234 455.12 436.83 464.616 430.083 472.05C428.654 473.576 426.253 473.695 424.685 472.287Z" fill="#636466"/>
<path d="M335.719 391.762C337.287 393.17 339.688 393.051 341.097 391.505C344.749 387.461 351.695 392.952 351.754 393.011L441.256 474.032C442.823 475.44 445.225 475.321 446.634 473.774C448.043 472.208 447.924 469.81 446.376 468.402L356.716 387.242C352.211 383.615 342.209 378.976 335.461 386.41C334.052 387.936 334.171 390.355 335.719 391.762Z" fill="#636466"/>
<path opacity="0.28" d="M376.092 411.777C387.19 400.691 387.19 382.717 376.092 371.631C364.994 360.545 347.001 360.545 335.903 371.631C324.805 382.717 324.805 400.691 335.903 411.777C347.001 422.863 364.994 422.863 376.092 411.777Z" fill="#F2F2F2"/>
<path opacity="0.28" d="M443.249 472.548C454.346 461.462 454.346 443.488 443.249 432.401C432.151 421.315 414.157 421.315 403.06 432.401C391.962 443.488 391.962 461.462 403.06 472.548C414.157 483.634 432.151 483.634 443.249 472.548Z" fill="#F2F2F2"/>
<path d="M445.324 428.021C434.29 418.029 418.255 416.919 406.13 424.194C403.53 414.54 395.691 407.463 385.828 405.818C391.881 393.051 389.222 377.251 378.168 367.24C364.673 355.028 343.737 356.059 331.512 369.54C319.288 383.02 320.32 403.934 333.814 416.146C338.299 420.21 343.578 422.807 349.155 423.957C350.544 424.254 351.953 424.472 353.362 424.571C354.969 424.69 356.577 424.71 358.184 424.591C366.44 424.036 374.497 420.448 380.49 413.846C380.728 413.589 380.986 413.291 381.204 413.014C381.978 413.034 382.733 413.073 383.487 413.133C387.416 413.569 390.948 415.075 393.667 417.553C396.406 420.031 398.251 423.382 399.065 427.247C399.204 428.001 399.343 428.754 399.402 429.527C399.144 429.765 398.906 430.043 398.668 430.3C392.695 436.882 389.916 445.248 390.174 453.494C390.214 455.1 390.393 456.706 390.671 458.292C390.929 459.679 391.266 461.087 391.683 462.435C393.389 467.847 396.505 472.862 400.97 476.907C414.465 489.118 435.401 488.087 447.626 474.607C459.851 461.166 458.819 440.252 445.324 428.021ZM354.83 417.038C349.155 416.8 343.499 414.639 338.954 410.516C328.555 401.099 327.762 385.042 337.188 374.674C346.595 364.306 362.689 363.493 373.068 372.91C382.455 381.414 384.003 395.41 377.216 405.679L377.196 405.699C376.501 406.749 375.707 407.78 374.834 408.771C374.318 409.326 373.782 409.882 373.247 410.377C369.754 413.628 365.567 415.67 361.121 416.562C359.057 416.959 356.934 417.137 354.83 417.038ZM406.09 471.277C401.526 467.153 398.827 461.761 398.013 456.131C397.716 454.049 397.676 451.928 397.894 449.827C398.331 445.327 399.978 440.946 402.855 437.159C403.292 436.565 403.788 435.99 404.304 435.415C405.197 434.443 406.13 433.551 407.122 432.758C407.122 432.758 407.122 432.758 407.142 432.739C416.707 424.987 430.797 425.146 440.204 433.651C450.603 443.067 451.377 459.144 441.97 469.492C432.564 479.9 416.489 480.693 406.09 471.277Z" fill="#636466"/>
<path d="M563.422 124.614L493.924 376.141C490.65 388.016 478.346 394.994 466.459 391.703C462.728 390.672 459.473 388.749 456.874 386.231C451.198 380.74 448.638 372.414 450.88 364.266L463.462 318.711L240.264 257.177L289.738 78.1066L563.422 124.614Z" fill="white"/>
<path opacity="0.2" d="M474.357 174.511L472.809 180.141L276.521 126.021L282.138 105.721C315.616 117.576 474.357 174.511 474.357 174.511Z" fill="#3A7EC1"/>
<path opacity="0.2" d="M487.316 180.537C480.489 178.654 473.583 179.269 467.53 181.806L438.378 287.29L469.773 295.933L450.9 364.266C448.658 372.414 449.908 380.363 453.619 385.319C459.414 382.921 464.653 376.537 466.975 368.172L485.728 300.314L508.153 219.135L508.511 217.806C512.956 201.69 503.47 184.998 487.316 180.537Z" fill="#3A7EC1"/>
<path d="M466.479 391.703L230.243 326.581C213.672 322.002 203.928 304.874 208.512 288.321L256.537 114.484L442.744 165.808L434.667 195.029C436.651 187.833 441.057 181.985 446.772 178.079C447.467 177.603 448.201 177.147 448.936 176.731C455.683 172.905 463.919 171.656 471.996 173.876C488.149 178.337 497.635 195.029 493.17 211.165L450.88 364.266C447.606 376.141 454.591 388.432 466.479 391.703Z" fill="#5B97EF"/>
<path d="M430.003 381.652L386.443 369.639L434.866 194.355C436.929 187.476 441.256 181.846 446.792 178.079C461.875 183.174 470.607 199.331 466.32 214.853L425.776 361.61C423.772 368.846 425.598 376.24 430.003 381.652Z" fill="#3B82F4"/>
<path d="M347.11 511.975L434.667 195.029C439.132 178.892 455.842 169.416 471.996 173.857L205.536 100.409C189.501 95.9879 172.91 105.404 168.485 121.422L80.8687 438.587L347.11 511.975Z" fill="white"/>
<path d="M207.384 175.937C212.987 170.34 212.987 161.265 207.384 155.668C201.781 150.071 192.696 150.071 187.093 155.668C181.49 161.265 181.49 170.34 187.093 175.937C192.696 181.534 201.781 181.534 207.384 175.937Z" fill="#E4ECF9"/>
<path d="M391.822 226.886L227.107 181.489C223.396 180.458 221.174 176.592 222.205 172.865L222.285 172.568C223.317 168.861 227.187 166.641 230.917 167.672L395.632 213.069C399.343 214.099 401.565 217.965 400.534 221.692L400.454 221.989C399.442 225.696 395.552 227.897 391.822 226.886Z" fill="#E4ECF9"/>
<path d="M184.162 227.481C192.087 227.481 198.51 221.064 198.51 213.148C198.51 205.232 192.087 198.815 184.162 198.815C176.238 198.815 169.814 205.232 169.814 213.148C169.814 221.064 176.238 227.481 184.162 227.481Z" fill="#E4ECF9"/>
<path d="M378.743 274.226L214.029 228.829C210.318 227.798 208.096 223.932 209.127 220.205L209.207 219.908C210.239 216.201 214.109 213.98 217.839 215.011L382.554 260.408C386.265 261.439 388.487 265.305 387.455 269.032L387.376 269.329C386.344 273.056 382.474 275.257 378.743 274.226Z" fill="#E4ECF9"/>
<path d="M171.065 274.84C178.989 274.84 185.413 268.423 185.413 260.507C185.413 252.592 178.989 246.175 171.065 246.175C163.14 246.175 156.717 252.592 156.717 260.507C156.717 268.423 163.14 274.84 171.065 274.84Z" fill="#E4ECF9"/>
<path d="M365.666 321.585L200.951 276.188C197.24 275.157 195.018 271.292 196.05 267.565L196.129 267.267C197.161 263.56 201.031 261.34 204.762 262.371L369.476 307.768C373.187 308.799 375.41 312.665 374.378 316.391L374.298 316.689C373.266 320.396 369.396 322.596 365.666 321.585Z" fill="#E4ECF9"/>
<path d="M168.128 317.987C173.731 312.39 173.731 303.315 168.128 297.718C162.525 292.12 153.44 292.12 147.837 297.718C142.234 303.315 142.234 312.39 147.837 317.987C153.44 323.584 162.525 323.584 168.128 317.987Z" fill="#E4ECF9"/>
<path d="M352.588 368.925L187.873 323.528C184.162 322.497 181.94 318.632 182.972 314.905L183.051 314.607C184.083 310.9 187.953 308.68 191.684 309.711L356.398 355.108C360.109 356.139 362.332 360.004 361.3 363.731L361.22 364.029C360.188 367.755 356.319 369.956 352.588 368.925Z" fill="#E4ECF9"/>
<path d="M155.057 365.342C160.66 359.744 160.66 350.669 155.057 345.072C149.453 339.475 140.369 339.475 134.766 345.072C129.162 350.669 129.162 359.744 134.766 365.342C140.369 370.939 149.453 370.939 155.057 365.342Z" fill="#E4ECF9"/>
<path d="M339.51 416.265L174.796 370.868C171.085 369.837 168.862 365.971 169.894 362.244L169.973 361.947C171.005 358.24 174.875 356.02 178.606 357.05L343.32 402.447C347.031 403.478 349.254 407.344 348.222 411.071L348.142 411.368C347.111 415.095 343.221 417.296 339.51 416.265Z" fill="#E4ECF9"/>
<path d="M141.971 412.682C147.574 407.085 147.574 398.01 141.971 392.413C136.368 386.815 127.283 386.815 121.68 392.413C116.077 398.01 116.077 407.085 121.68 412.682C127.283 418.279 136.368 418.279 141.971 412.682Z" fill="#E4ECF9"/>
<path d="M326.432 463.624L161.718 418.227C158.007 417.197 155.784 413.331 156.816 409.604L156.895 409.307C157.927 405.599 161.797 403.379 165.528 404.41L330.242 449.807C333.953 450.838 336.176 454.704 335.144 458.431L335.065 458.728C334.033 462.455 330.143 464.655 326.432 463.624Z" fill="#E4ECF9"/>
<path d="M177.356 221.712C176.403 221.454 175.57 220.82 175.034 219.908L169.318 209.837C168.267 207.994 168.921 205.654 170.767 204.604C172.613 203.553 174.954 204.207 176.006 206.051L179.836 212.791L197.082 203.018C198.927 201.967 201.269 202.621 202.321 204.465C203.373 206.309 202.718 208.648 200.872 209.699L180.293 221.355C179.36 221.89 178.308 221.989 177.356 221.712Z" fill="#F9C067"/>
<path d="M151.974 313.616C151.021 313.358 150.188 312.724 149.652 311.812L143.936 301.741C142.885 299.898 143.54 297.559 145.385 296.508C147.231 295.457 149.573 296.111 150.624 297.955L154.454 304.695L171.7 294.922C173.545 293.871 175.887 294.526 176.939 296.369C177.991 298.213 177.336 300.552 175.49 301.603L154.911 313.259C153.958 313.775 152.926 313.894 151.974 313.616Z" fill="#F9C067"/>
<path d="M138.499 362.363C137.546 362.106 136.713 361.471 136.177 360.559L130.462 350.489C129.41 348.645 130.065 346.306 131.91 345.255C133.756 344.204 136.098 344.859 137.149 346.702L140.98 353.442L158.225 343.669C160.071 342.619 162.412 343.273 163.464 345.116C164.516 346.96 163.861 349.299 162.015 350.35L141.436 362.006C140.503 362.522 139.451 362.621 138.499 362.363Z" fill="#F9C067"/>
<path d="M125.818 408.315C124.865 408.058 124.032 407.423 123.496 406.511L117.78 396.441C116.729 394.597 117.384 392.258 119.229 391.207C121.075 390.157 123.416 390.811 124.468 392.654L128.298 399.395L145.544 389.621C147.389 388.571 149.731 389.225 150.783 391.068C151.835 392.912 151.18 395.251 149.334 396.302L128.755 407.959C127.802 408.474 126.75 408.573 125.818 408.315Z" fill="#F9C067"/>
<path d="M350.841 34.3749C360.344 34.3749 368.047 26.6798 368.047 17.1874C368.047 7.69507 360.344 0 350.841 0C341.339 0 333.636 7.69507 333.636 17.1874C333.636 26.6798 341.339 34.3749 350.841 34.3749Z" fill="#4786D1"/>
<path d="M34.0714 249.178C35.7297 241.572 30.9015 234.063 23.2873 232.407C15.6731 230.75 8.15622 235.573 6.49794 243.179C4.83966 250.786 9.66792 258.294 17.2821 259.951C24.8963 261.607 32.4132 256.784 34.0714 249.178Z" fill="#4786D1"/>
<path d="M531.729 495.046C541.232 495.046 548.935 487.35 548.935 477.858C548.935 468.366 541.232 460.671 531.729 460.671C522.227 460.671 514.524 468.366 514.524 477.858C514.524 487.35 522.227 495.046 531.729 495.046Z" fill="#4786D1"/>
</g>
<defs>
<clipPath id="clip0_40_479">
<rect width="638" height="561" fill="white"/>
</clipPath>
</defs>
</svg>
