<svg width="100" height="96" viewBox="0 0 100 96" fill="none" xmlns="http://www.w3.org/2000/svg">
<g clip-path="url(#clip0_40_439)">
<path d="M5.49443 49.1893C6.95964 47.1143 8.66904 45.2834 10.6226 43.5746L16.8497 38.4482L36.5079 21.9704C37.3626 23.191 38.3394 24.2895 39.5604 25.266L49.9389 34.0541L32.6007 48.4569L21.7337 57.6113C20.7569 58.4657 19.9022 59.4421 19.2917 60.5406C16.8497 64.8127 17.3381 70.4273 21.1232 74.0891C25.1526 78.117 31.6239 78.239 36.1416 74.6994L50.061 86.4169L47.619 88.4919C35.5311 98.6227 17.3381 97.158 6.95964 85.3184C-2.07577 74.9435 -2.07577 59.9304 5.49443 49.1893Z" fill="#2259C9"/>
<path d="M49.9392 10.619L62.6376 0C68.01 6.347 68.1321 15.3793 63.4923 21.8483L49.9392 10.619Z" fill="#2259C9"/>
<path d="M49.9392 63.1038L67.2774 48.4569L74.7255 42.232C77.1675 40.157 80.0979 38.8143 83.1504 38.3261C89.2554 37.2276 95.7268 39.3026 100 44.429L94.5058 49.0672L80.8305 60.5406L63.8586 74.6993C63.7365 74.5773 63.7365 74.5773 63.6144 74.4552L49.9392 63.1038Z" fill="#2259C9"/>
<path d="M37.3627 0L49.9391 10.619L63.3701 21.9704L83.0282 38.4482C80.0978 38.9364 77.1674 40.2791 74.6033 42.354L67.1552 48.579L49.9391 33.9321L39.5605 25.1439C38.3395 24.1674 37.3627 23.0689 36.508 21.8483C31.8682 15.3793 31.9903 6.347 37.3627 0Z" fill="#00BAEB"/>
<path d="M19.1697 60.6627C19.7802 59.5642 20.6349 58.5877 21.6117 57.7333L32.4786 48.579L49.8168 63.2259L63.492 74.6993C63.6141 74.8214 63.6141 74.8214 63.7362 74.9435C68.1318 78.4831 74.7252 78.3611 78.7545 74.3332C82.5396 70.6714 83.028 65.0568 80.586 60.7848L94.2612 49.3113C101.831 60.0524 101.831 75.0655 92.796 85.4404C82.4175 97.4021 64.3467 98.8668 52.1367 88.6139L49.6947 86.5389L35.7753 74.8214L19.1697 60.6627Z" fill="#00BAEB"/>
<path d="M0 44.5511C4.2735 39.4246 10.7448 37.3497 16.8498 38.4482L10.6227 43.5746C8.66911 45.2834 6.95971 47.1143 5.49451 49.1893L0 44.5511Z" fill="#00BAEB"/>
<g opacity="0.3">
<path d="M6.95964 85.1963C17.3381 97.158 35.409 98.6226 47.619 88.3698L50.061 86.2948L42.9792 80.5581L41.7582 81.5346C37.9731 84.7081 33.4554 86.2948 28.8156 86.2948C23.0769 86.2948 17.3381 83.8537 13.4309 79.0934C7.44804 72.0141 7.20384 62.0053 12.2099 54.8039C13.1867 53.3392 14.4077 51.9966 15.8729 50.776L18.3149 48.701L25.5189 42.5981L42.8571 27.9512L39.4383 25.0218C38.2173 24.0454 37.2405 22.9468 36.3858 21.7263L16.8497 38.4482L10.6226 43.5746C9.76794 44.1849 9.03534 44.9172 8.42484 45.6496C7.32594 46.7481 6.34914 47.8466 5.49443 49.0672C-2.07577 59.9303 -2.07577 74.9434 6.95964 85.1963Z" fill="white"/>
<path d="M56.2883 15.8675L63.3701 21.8484C67.8878 15.6234 67.8878 6.95731 63.1259 0.732361L57.6314 13.3043C57.2651 14.1587 56.8988 15.0131 56.2883 15.8675Z" fill="url(#paint0_linear_40_439)"/>
<path d="M57.7536 13.3043L63.2481 0.732347C63.126 0.488231 62.8818 0.244115 62.6376 0L49.9392 10.619L56.2884 15.9896C56.8989 15.0131 57.2652 14.1587 57.7536 13.3043Z" fill="white"/>
<path d="M36.7522 0.732347C36.8743 0.488231 37.1185 0.244116 37.3627 0L49.939 10.619L56.2882 15.9896L63.37 21.9704L83.0281 38.4482C80.0977 38.9364 77.1673 40.2791 74.6032 42.354L74.359 42.7202L56.8987 28.0733L49.939 22.2145L47.1307 19.8954C45.7876 18.6748 44.5666 17.3322 43.5898 15.8675C43.1014 15.0131 42.613 14.1587 42.1246 13.3043L36.7522 0.732347Z" fill="white"/>
<path d="M36.7522 0.732361L42.2467 13.3043C42.613 14.1587 43.1014 15.1352 43.7119 15.8675C44.6887 17.3322 45.9097 18.7969 47.2528 19.8954L50.0611 22.2145L57.0208 28.0733L74.3591 42.7202L67.3993 48.579L49.939 33.9321L42.9793 28.0733L39.5605 25.1439C38.3395 24.1675 37.3627 23.0689 36.508 21.8484C31.9903 15.6234 31.9903 7.07936 36.7522 0.732361Z" fill="url(#paint1_linear_40_439)"/>
<path d="M19.1697 60.6627C19.7802 59.5642 20.6349 58.5877 21.6117 57.7333L25.5189 54.4378L42.8571 69.0847L49.8168 74.9435L56.7765 80.8022L57.9975 81.7787C61.7826 84.9522 66.3003 86.539 70.9401 86.539C76.6788 86.539 82.4175 84.0978 86.3247 79.3376C92.3076 72.2582 92.5518 62.2495 87.5457 55.0481L94.2612 49.4334C101.831 60.1745 101.831 75.1876 92.796 85.5625C82.4175 97.5242 64.3467 98.9889 52.1367 88.736L49.6947 86.661L42.9792 80.5581L36.0195 74.6994L19.1697 60.6627Z" fill="white"/>
<path d="M12.3322 54.8039C13.309 53.3392 14.53 51.9966 15.9952 50.776L18.4372 48.7011L25.6411 42.5982L42.9793 27.9512L49.939 33.81L32.6008 48.4569L25.6411 54.3157L21.7339 57.6113C20.7571 58.4657 19.9024 59.4421 19.2919 60.5407C16.8499 64.8127 17.3383 70.4273 21.1234 74.0891C25.1527 78.117 31.624 78.239 36.1417 74.6994L43.1014 80.5581L41.8804 81.5346C38.0953 84.7081 33.5776 86.2948 28.9378 86.2948C23.1991 86.2948 17.4604 83.8537 13.5532 79.0934C7.57027 72.0141 7.32607 62.1274 12.3322 54.8039Z" fill="url(#paint2_linear_40_439)"/>
<path d="M10.6228 43.5746L16.8499 38.4482C10.9891 37.3497 4.8841 39.3026 0.610596 43.8187L8.425 45.6496C9.0355 44.9173 9.89021 44.307 10.6228 43.5746Z" fill="url(#paint3_linear_40_439)"/>
<path d="M5.49451 49.1893C6.34921 47.9687 7.32601 46.8702 8.42491 45.7717L0.610501 43.9408C0.3663 44.1849 0.2442 44.429 0 44.5511L5.49451 49.1893Z" fill="white"/>
<path d="M49.9392 63.1039L67.2774 48.4569L74.2371 42.5982L74.7255 42.232C77.1675 40.157 80.0979 38.8144 83.1504 38.3261C89.0112 37.3497 95.1163 39.1805 99.3898 43.8187L91.5753 45.6496L86.0808 46.9922C84.4935 47.3584 83.0283 47.9687 81.5631 48.7011C80.4642 49.3113 79.4874 49.9216 78.6327 50.654L74.3592 54.1936L57.021 68.8406L49.9392 63.1039Z" fill="url(#paint4_linear_40_439)"/>
<path d="M56.8989 68.9626L74.2371 54.3157L78.5107 50.776C79.3654 50.0437 80.4642 49.3113 81.441 48.8231C82.7841 48.0908 84.3715 47.4805 85.9588 47.1143L91.4533 45.7717L99.2677 43.9408C99.5119 44.1849 99.634 44.429 99.8782 44.5511L94.3837 49.1893L87.6682 54.8039L80.7084 60.6627L63.8586 74.6994C63.7365 74.5773 63.7365 74.5773 63.6144 74.4552L56.8989 68.9626Z" fill="white"/>
<path d="M25.6411 54.3157L32.6008 48.4569L49.939 63.1038L56.8987 68.9626L63.6143 74.5773C63.7364 74.6993 63.7364 74.6993 63.8585 74.8214C68.2541 78.3611 74.8475 78.239 78.8768 74.2111C82.6619 70.5494 83.1503 64.9347 80.7083 60.6627L87.668 54.8039C92.6741 62.0053 92.4299 72.0141 86.447 79.0934C82.4177 83.8537 76.8011 86.2948 71.0624 86.2948C66.5447 86.2948 61.9048 84.7081 58.1197 81.5346L56.8987 80.5581L49.939 74.6993L42.9793 68.8406L25.6411 54.3157Z" fill="url(#paint5_linear_40_439)"/>
</g>
<path opacity="0.3" d="M57.6311 56.6348L49.6946 63.3479L63.3698 74.8214C63.4919 74.9434 63.4919 74.9434 63.614 75.0655L71.3063 68.5964C67.277 67.62 60.8057 64.8126 57.6311 56.6348Z" fill="url(#paint6_radial_40_439)"/>
<path opacity="0.3" d="M63.1256 22.0925C65.4455 18.7969 66.5444 15.0131 66.4223 11.1073C63.8582 9.27639 61.172 6.71317 59.0963 2.92938L49.6946 10.8631L63.1256 22.0925Z" fill="url(#paint7_radial_40_439)"/>
<path opacity="0.3" d="M30.525 95.3271C36.508 94.9609 42.3688 92.7639 47.2528 88.6139L49.6948 86.539L35.7753 74.8214C33.8217 76.4082 31.3797 77.2626 28.9377 77.3846C31.1355 82.389 31.0134 90.3227 30.525 95.3271Z" fill="url(#paint8_radial_40_439)"/>
<path opacity="0.3" d="M39.4383 42.8423L49.8168 34.1762L39.4383 25.388C38.2173 24.4116 37.2405 23.313 36.3858 22.0925L26.1294 30.7586C33.2112 34.0541 37.3626 39.3026 39.4383 42.8423Z" fill="url(#paint9_radial_40_439)"/>
<path opacity="0.3" d="M21.4896 57.8554C20.5128 58.7098 19.6581 59.6862 19.0476 60.7848L27.5946 67.9862C29.4261 64.5686 33.3333 60.0524 42.1245 56.7569L32.4786 48.701L21.4896 57.8554Z" fill="url(#paint10_radial_40_439)"/>
<path opacity="0.3" d="M5.25022 49.3113C6.71542 47.2363 8.42482 45.4055 10.3784 43.6967L16.6055 38.5702C13.4309 37.96 10.0121 38.3261 6.95962 39.5467L1.34302 46.0158L5.25022 49.3113Z" fill="url(#paint11_radial_40_439)"/>
<path opacity="0.3" d="M58.1196 41.1334L67.0329 48.701L74.481 42.4761C76.9231 40.4011 79.8535 39.0585 82.906 38.5702L70.5738 28.1953C66.9108 35.1526 62.1489 39.0585 58.1196 41.1334Z" fill="url(#paint12_radial_40_439)"/>
<path opacity="0.15" d="M99.6336 67.62C99.8778 61.1509 97.9242 54.6819 94.1391 49.3113L80.4639 60.7848C81.5628 62.7377 82.0512 65.0568 81.9291 67.3759C87.7899 64.8127 95.238 66.2774 99.6336 67.62Z" fill="url(#paint13_radial_40_439)"/>
</g>
<defs>
<linearGradient id="paint0_linear_40_439" x1="67.4463" y1="6.39181" x2="56.4983" y2="19.355" gradientUnits="userSpaceOnUse">
<stop stop-color="white"/>
<stop offset="0.108" stop-color="#FAFAFA"/>
<stop offset="0.2318" stop-color="#ECECEC"/>
<stop offset="0.3633" stop-color="#D5D5D5"/>
<stop offset="0.5004" stop-color="#B5B5B5"/>
<stop offset="0.6417" stop-color="#8C8C8C"/>
<stop offset="0.7865" stop-color="#595959"/>
<stop offset="0.9316" stop-color="#1E1E1E"/>
<stop offset="1"/>
</linearGradient>
<linearGradient id="paint1_linear_40_439" x1="39.1796" y1="13.8224" x2="91.6164" y2="59.7207" gradientUnits="userSpaceOnUse">
<stop stop-color="white"/>
<stop offset="1"/>
</linearGradient>
<linearGradient id="paint2_linear_40_439" x1="74.903" y1="23.7352" x2="16.1361" y2="78.052" gradientUnits="userSpaceOnUse">
<stop stop-color="white"/>
<stop offset="0.108" stop-color="#FAFAFA"/>
<stop offset="0.2318" stop-color="#ECECEC"/>
<stop offset="0.3633" stop-color="#D5D5D5"/>
<stop offset="0.5004" stop-color="#B5B5B5"/>
<stop offset="0.6417" stop-color="#8C8C8C"/>
<stop offset="0.7865" stop-color="#595959"/>
<stop offset="0.9316" stop-color="#1E1E1E"/>
<stop offset="1"/>
</linearGradient>
<linearGradient id="paint3_linear_40_439" x1="16.8299" y1="41.9061" x2="0.602415" y2="41.9061" gradientUnits="userSpaceOnUse">
<stop stop-color="white"/>
<stop offset="1"/>
</linearGradient>
<linearGradient id="paint4_linear_40_439" x1="99.3537" y1="53.5251" x2="49.9826" y2="53.5251" gradientUnits="userSpaceOnUse">
<stop stop-color="white"/>
<stop offset="0.108" stop-color="#FAFAFA"/>
<stop offset="0.2318" stop-color="#ECECEC"/>
<stop offset="0.3633" stop-color="#D5D5D5"/>
<stop offset="0.5004" stop-color="#B5B5B5"/>
<stop offset="0.6417" stop-color="#8C8C8C"/>
<stop offset="0.7865" stop-color="#595959"/>
<stop offset="0.9316" stop-color="#1E1E1E"/>
<stop offset="1"/>
</linearGradient>
<linearGradient id="paint5_linear_40_439" x1="10.3283" y1="14.0941" x2="119.373" y2="109.467" gradientUnits="userSpaceOnUse">
<stop stop-color="white"/>
<stop offset="1"/>
</linearGradient>
<radialGradient id="paint6_radial_40_439" cx="0" cy="0" r="1" gradientUnits="userSpaceOnUse" gradientTransform="translate(65.8748 59.4689) rotate(180) scale(12.9603 12.9558)">
<stop offset="0.7055" stop-color="white"/>
<stop offset="0.7598" stop-color="#FCFCFC"/>
<stop offset="0.7989" stop-color="#F3F3F3"/>
<stop offset="0.8333" stop-color="#E3E3E3"/>
<stop offset="0.865" stop-color="#CDCDCD"/>
<stop offset="0.8948" stop-color="#B0B0B0"/>
<stop offset="0.9232" stop-color="#8C8C8C"/>
<stop offset="0.9505" stop-color="#626262"/>
<stop offset="0.9763" stop-color="#333333"/>
<stop offset="1"/>
</radialGradient>
<radialGradient id="paint7_radial_40_439" cx="0" cy="0" r="1" gradientUnits="userSpaceOnUse" gradientTransform="translate(65.2383 7.07178) rotate(180) scale(15.2265 15.2212)">
<stop offset="0.566" stop-color="white"/>
<stop offset="0.6146" stop-color="#FEFEFE"/>
<stop offset="0.6475" stop-color="#F4F4F4"/>
<stop offset="0.7023" stop-color="#DBDBDB"/>
<stop offset="0.7724" stop-color="#B1B1B1"/>
<stop offset="0.8551" stop-color="#777777"/>
<stop offset="0.9472" stop-color="#2D2D2D"/>
<stop offset="1"/>
</radialGradient>
<radialGradient id="paint8_radial_40_439" cx="0" cy="0" r="1" gradientUnits="userSpaceOnUse" gradientTransform="translate(27.2028 97.1936) rotate(180) scale(28.23 28.2202)">
<stop offset="0.5764" stop-color="white"/>
<stop offset="0.623" stop-color="#FCFCFC"/>
<stop offset="0.6565" stop-color="#F3F3F3"/>
<stop offset="0.686" stop-color="#E3E3E3"/>
<stop offset="0.7132" stop-color="#CDCDCD"/>
<stop offset="0.7388" stop-color="#B0B0B0"/>
<stop offset="0.7631" stop-color="#8C8C8C"/>
<stop offset="0.7865" stop-color="#626262"/>
<stop offset="0.8086" stop-color="#333333"/>
<stop offset="0.829"/>
</radialGradient>
<radialGradient id="paint9_radial_40_439" cx="0" cy="0" r="1" gradientUnits="userSpaceOnUse" gradientTransform="translate(26.234 43.195) rotate(180) scale(22.9945 22.9865)">
<stop offset="0.566" stop-color="white"/>
<stop offset="0.646" stop-color="#FCFCFC"/>
<stop offset="0.7037" stop-color="#F3F3F3"/>
<stop offset="0.7544" stop-color="#E3E3E3"/>
<stop offset="0.8011" stop-color="#CDCDCD"/>
<stop offset="0.845" stop-color="#B0B0B0"/>
<stop offset="0.8869" stop-color="#8C8C8C"/>
<stop offset="0.9271" stop-color="#626262"/>
<stop offset="0.965" stop-color="#333333"/>
<stop offset="1"/>
</radialGradient>
<radialGradient id="paint10_radial_40_439" cx="0" cy="0" r="1" gradientUnits="userSpaceOnUse" gradientTransform="translate(56.8565 82.9306) rotate(180) scale(41.7706 41.7561)">
<stop offset="0.7521" stop-color="white"/>
<stop offset="0.7978" stop-color="#FCFCFC"/>
<stop offset="0.8308" stop-color="#F3F3F3"/>
<stop offset="0.8597" stop-color="#E3E3E3"/>
<stop offset="0.8864" stop-color="#CDCDCD"/>
<stop offset="0.9115" stop-color="#B0B0B0"/>
<stop offset="0.9354" stop-color="#8C8C8C"/>
<stop offset="0.9584" stop-color="#626262"/>
<stop offset="0.98" stop-color="#333333"/>
<stop offset="1"/>
</radialGradient>
<radialGradient id="paint11_radial_40_439" cx="0" cy="0" r="1" gradientUnits="userSpaceOnUse" gradientTransform="translate(-5.39398 33.438) rotate(180) scale(21.9474 21.9398)">
<stop offset="0.566" stop-color="white"/>
<stop offset="0.646" stop-color="#FCFCFC"/>
<stop offset="0.7037" stop-color="#F3F3F3"/>
<stop offset="0.7544" stop-color="#E3E3E3"/>
<stop offset="0.8011" stop-color="#CDCDCD"/>
<stop offset="0.845" stop-color="#B0B0B0"/>
<stop offset="0.8869" stop-color="#8C8C8C"/>
<stop offset="0.9271" stop-color="#626262"/>
<stop offset="0.965" stop-color="#333333"/>
<stop offset="1"/>
</radialGradient>
<radialGradient id="paint12_radial_40_439" cx="0" cy="0" r="1" gradientUnits="userSpaceOnUse" gradientTransform="translate(57.527 34.1083) rotate(180) scale(17.1722 17.1662)">
<stop offset="0.7055" stop-color="white"/>
<stop offset="0.7598" stop-color="#FCFCFC"/>
<stop offset="0.7989" stop-color="#F3F3F3"/>
<stop offset="0.8333" stop-color="#E3E3E3"/>
<stop offset="0.865" stop-color="#CDCDCD"/>
<stop offset="0.8948" stop-color="#B0B0B0"/>
<stop offset="0.9232" stop-color="#8C8C8C"/>
<stop offset="0.9505" stop-color="#626262"/>
<stop offset="0.9763" stop-color="#333333"/>
<stop offset="1"/>
</radialGradient>
<radialGradient id="paint13_radial_40_439" cx="0" cy="0" r="1" gradientUnits="userSpaceOnUse" gradientTransform="translate(91.502 68.5185) rotate(180) scale(19.0221 19.0155)">
<stop offset="0.4881" stop-color="white"/>
<stop offset="0.5169" stop-color="#F8F8F8"/>
<stop offset="0.5596" stop-color="#E4E4E4"/>
<stop offset="0.6111" stop-color="#C3C3C3"/>
<stop offset="0.6694" stop-color="#959595"/>
<stop offset="0.7333" stop-color="#5A5A5A"/>
<stop offset="0.801" stop-color="#131313"/>
<stop offset="0.8182"/>
</radialGradient>
<clipPath id="clip0_40_439">
<rect width="100" height="95.3271" fill="white"/>
</clipPath>
</defs>
</svg>
